<svg xmlns="http://www.w3.org/2000/svg" viewBox="232.2 313.6 148.3 164.7"><path fill="#FFF" d="M232.2 313.6v88.9c0 21.1 12.5 40.7 36.1 56.9 17.6 12.1 35.1 18 35.9 18.2l2.1.7 2.1-.7c.7-.3 18.2-6.1 35.9-18.2 23.6-16.2 36.1-35.9 36.1-56.9v-88.9H232.2z"/><path fill="#FF5FAC" d="M293.2 439.9h12.9v3.7h-4.3v17.8h-4.4v-17.8h-4.2v-3.7zM314.1 439.9h-4.4v21.5h4.4v-17.9h3.9l1.7-3.6M345.8 437.7l-1.1-1.2.6-.6s-1.8-2.2-2.8-2.8c-1-.6-4.3-1.7-4.3-1.7l-39.6-39.6 3.5-3.7v-6.5l-2.6-2.9-2.2-7.9-16.7-16.6s-.8-.3-3.3-1.3c-2.4-1-3.8-2.3-3.8-2.4 0 0-1-2.5-1.9-2.7-.9-.2-3.9-.9-5-1.2-1.1-.3-1.8.1-2 .5-.2.5-.3.4-.6.6-.3.2-3.3.6-3.6.9-.2.3-.2.9.4 1.6.6.6 1 1.2.8 1.9-.2.8.2 1.5.2 1.5l-9.3-9.3-1.6-.8s-.5-.4-2.4 1.3l-4.2 4.2c-1.7 1.9-1.3 2.4-1.3 2.4l.8 1.6 7.6 7.6-1.8 1.8-.8 3.9.9.9-.2 4.5 3 3h-20.1v3.7h20.5l7.7 7.5 3.9-3.9s-3.2 3.8-3 6.8c.2 2.1 3 4.7 3 4.7l1.6-1.6 5.8 5.8-3.1 9.8 5.9 5.9 22.2 5.6s.9.2 1.1.2c.4 0 .7-.4.7-.4l3.5-3.5s.5-.4.5-1c0-.7-.4-1.1-.4-1.1l-11.6-11.6c-.4-.4-.4-1 .1-1.4l.3-.3.2-.2 1.3-1.3 1 1 38.2 38.2s1.1 3.3 1.7 4.3c.6 1 2.8 2.8 2.8 2.8l.6-.6 1.1 1.1c2 2 5.3 1.8 7.4-.4 2.2-1.8 2.3-5.1.4-7.1zm-2.4 5.6c-.9.9-2.4.9-3.4 0-.9-.9-.9-2.4 0-3.4.9-.9 2.4-.9 3.4 0s1 2.5 0 3.4z"/><path fill="#FF5FAC" d="M380.4 375.1h-20.5l3-3-.2-4.5.9-.9-.8-3.9-1.8-1.8 7.6-7.6.8-1.6s.4-.5-1.3-2.4l-4.2-4.2c-1.9-1.7-2.4-1.3-2.4-1.3l-1.6.8-9.3 9.3s.4-.8.2-1.5c-.2-.8.3-1.3.8-1.9.6-.6.6-1.3.4-1.6s-3.3-.7-3.6-.9c-.3-.2-.4-.2-.6-.6-.2-.5-.9-.8-2-.5-1.1.3-4.1 1-5 1.2-.9.2-1.9 2.7-1.9 2.7 0 .2-1.3 1.4-3.8 2.4-2.4 1-3.3 1.3-3.3 1.3L315 371l-2.2 7.9-2.6 2.9v6.5l3.5 3.7-39.6 39.6s-3.3 1.1-4.3 1.7c-1 .6-2.8 2.8-2.8 2.8l.6.6-1.1 1.1c-2 2-1.8 5.3.4 7.4 2.1 2.1 5.5 2.3 7.4.4l1.1-1.1.6.6s2.2-1.8 2.8-2.8c.6-1 1.7-4.3 1.7-4.3l38.2-38.2 1-1 1.3 1.3.2.2.3.3c.4.4.4 1.1.1 1.4L310 413.6s-.5.4-.4 1.1c0 .6.5 1 .5 1l3.5 3.5s.4.4.7.4c.3 0 1.1-.2 1.1-.2l22.2-5.6 5.9-5.9-3.1-9.8 5.8-5.8 1.6 1.6s2.9-2.6 3-4.7c.2-3-3-6.8-3-6.8l3.9 3.9 7.7-7.5h20.9v-3.7h.1zm-108.3 68.2c-.9.9-2.4.9-3.4 0-.9-.9-.9-2.4 0-3.4.9-.9 2.4-.9 3.4 0s1 2.5 0 3.4z"/><g><path fill="#FF5FAC" d="M310.588 324.526l-4.313 4.314-4.313-4.314 4.313-4.313zM310.568 339.428l-4.314 4.313-4.313-4.312 4.314-4.314zM310.547 354.33l-4.314 4.312-4.313-4.313 4.313-4.314zM321.16 343.724l-4.312-4.313 4.313-4.312 4.314 4.313zM291.358 343.766l-4.313-4.313 4.313-4.313 4.314 4.313zM313.8 346.9h6.1v6.1h-6.1zM292.7 325.8h6.1v6.1h-6.1z"/><g><path fill="#FF5FAC" d="M292.7 346.9h6.1v6.1h-6.1zM313.8 325.8h6.1v6.1h-6.1z"/></g></g></svg>